<svg xmlns="http://www.w3.org/2000/svg" fill="none" viewBox="0 0 20 20"><path fill="#fff" d="M18 7h-2.5c-.827 0-1.5-.673-1.5-1.5V2H6v16h12V7z"/><path fill="#fff" d="M18 6v-.293l-3-3V5.5c0 .275.225.5.5.5H18z"/><path fill="#605E5C" fill-rule="evenodd" d="M18.707 5 15 1.293A1 1 0 0 0 14.293 1H6a1 1 0 0 0-1 1v16a1 1 0 0 0 1 1h12a1 1 0 0 0 1-1V5.707A1 1 0 0 0 18.707 5zM18 5.707V6h-2.5a.501.501 0 0 1-.5-.5V2.707l3 3zM6 2.2v15.6c0 .11.09.2.2.2h11.6a.2.2 0 0 0 .2-.2V7h-2.5A1.5 1.5 0 0 1 14 5.5V2H6.2a.2.2 0 0 0-.2.2z" clip-rule="evenodd" opacity=".64"/><path fill="#ED6C47" d="M15.95 11H14l-1-1-1 1v2.489a2.482 2.482 0 0 0 3.437-.408A2.5 2.5 0 0 0 15.95 11z"/><path fill="#FF8F6B" d="M13.5 9a2.48 2.48 0 0 0-1.5.509V11h2V9.05a2.51 2.51 0 0 0-.5-.05z"/><path fill="#FFC7B5" d="M15 10h2a2.567 2.567 0 0 0-2-2v2z"/><path fill="#C43E1C" d="M2 16h8a1 1 0 0 0 1-1V7a1 1 0 0 0-1-1H2a1 1 0 0 0-1 1v8a1 1 0 0 0 1 1z"/><path fill="#F9F7F7" fill-rule="evenodd" d="M7.505 8.481C7.175 8.16 6.7 8 6.08 8H4.012v6H5v-2.121h1.015a2.1 2.1 0 0 0 1.044-.253c.3-.169.532-.405.696-.71.164-.304.245-.652.245-1.042 0-.607-.165-1.072-.495-1.393zM5.899 11h-.9V8.988h.932C6.359 8.988 7 8.992 7 10c0 .898-.594 1-1.101 1z" clip-rule="evenodd"/></svg>